<svg version="1" xmlns="http://www.w3.org/2000/svg" width="1333.333" height="1333.333" viewBox="0 0 1000.000000 1000.000000"><path d="M475 3.1C375.7 8.2 280.4 42.7 201.5 102c-36.1 27.2-72.3 63.4-99.5 99.5-104.2 138.4-128.4 322.4-63.8 484C78.1 785.2 151 870.7 244 926.8c19.6 11.8 52.6 28.1 74 36.5 129.9 51 276.2 45.2 400.2-15.9 22.9-11.3 35.7-18.7 55.8-31.9 102.8-67.7 177.2-171.7 207.9-290.6 4.2-16.1 8.6-37.8 9.5-46.4.4-4 .4-4.4-.3-1.7-.5 1.8-1 3.5-1.2 3.6-.2.2-4.4 0-9.4-.5-56.1-5.3-131.1-11-221.5-16.8-18.4-1.2-57.4-5.7-170.4-19.7-26.1-3.2-46.3-5.3-48.3-4.9-2 .3-6.5 3.1-11.1 6.9C485.5 580.8 441.8 598 395 598c-23.1 0-51.8-4.2-118-17.4-54.6-10.8-56.5-11.1-84-11.1-21.9 0-24.5.2-37.5 2.8-26.1 5.4-61 18.5-96.7 36.3-12.1 6.1-17.9 7.7-19.3 5.4-.4-.6 1.9-6.5 5.1-13.3 3.1-6.7 8.1-18.5 11.1-26.2 16-41.4 39.5-76.2 73.6-109.2 56-54.2 126-84.6 214.7-93.4 6.3-.6 12.7-1.7 14.2-2.5 2.2-1.1 9.8-1.4 39.3-1.4h36.6l22.2 6.6c12.2 3.6 25.6 8 29.7 9.6 16 6.3 32.4 16.7 51.1 32.4 6.3 5.2 12.8 10.3 14.6 11.1 3.4 1.7-1.2 2 86.8-4.2 124.1-8.7 144.9-9.7 185-9 34 .6 165.2-.9 166.2-1.9.8-.8-5.5-29.4-10.2-46.5-8.4-30.3-19.2-58.2-34.1-88.1C870.3 127.3 723.1 24.3 556 5.6c-14.3-1.6-50.5-3.7-59.9-3.5-3.1.1-12.6.6-21.1 1z"/><path d="M749 426.7c-2.5.1-14.8 1-27.5 1.8-33.8 2.3-87.1 6.3-134 10-9.9.8-21.4 1.7-25.5 2.1-14.1 1-19 4.3-25 16.8-8.9 18.7-9.1 36.8-.7 54.8 3.7 7.9 6.2 11 10.5 13.2 2.6 1.3 32.2 5.2 110.2 14.6 14 1.7 30.9 3.7 37.5 4.5 43.2 5.2 69 7.6 90.7 8.4 13.4.5 24.6.7 24.9.5.3-.2.9-8.1 1.3-17.6.3-9.5 1.3-34.4 2.1-55.3s1.7-41.4 2.1-45.6l.6-7.6-13.8-.6c-13.3-.7-44.3-.7-53.4 0z"/></svg>