<svg version="1" xmlns="http://www.w3.org/2000/svg" width="769.333" height="769.333" viewBox="0 0 577.000000 577.000000"><path d="M277.7 208.1c-4.4 1-8.4 2.2-9 2.6-.7.4-1.7.8-2.4.9-.7.1-3.9 1.8-7.2 3.8-19.3 11.8-26.9 34.8-19.6 59.4 2 6.8 6.8 15.5 10.6 19.3 1.5 1.5 1.6 1.2 1.4-4-.1-3.1 0-6 .3-6.5s.6-2.8.8-5.3c.3-4.6 2.6-12.7 5.2-17.8 4-8.1 13.5-16.4 22.2-19.2 7.8-2.5 20.5-3.3 27.4-1.6 1.7.4 3.3.7 3.6.8 8.9 2 16.2 5.4 23 10.9 4.3 3.4 4.5 3.5 5.4 1.6.5-1.1 1.3-2 1.8-2 .4 0 .8-.5.8-1.1 0-.6.6-1.7 1.3-2.4 2.8-3.2 3.7-4.5 3.7-5.3 0-.4.8-1.7 1.8-2.8.9-1.1 3.1-4.1 4.9-6.6 3.6-5.3 3.8-4.8-5.2-11-7.1-4.9-18.7-10.2-28-12.8-11.3-3.2-31.7-3.7-42.8-.9z"/><path d="M215.4 293c.3 5.8.7 11.6 1 13 .3 1.4.9 3.8 1.2 5.5.3 1.6.9 3.4 1.2 4 .3.5.7 1.6.8 2.5.5 3.1 1.1 4.7 3.7 10.5 14.4 31.2 43.5 45 86.7 41.2 15.4-1.4 32.2-7.9 43.2-16.8 9.8-7.9 9.3-5.6 9.3-36.7 0-15.1-.4-27.6-.9-27.9-1.2-.8-33.5-.7-34.3 0-.3.4-.5 10.1-.4 21.6.1 23.9.9 21.9-10.4 25.8-8 2.8-11.2 3.6-16.1 3.8-2.3.1-4.5.4-5 .7-.5.2-2.2.3-3.9.2-1.6-.1-6.1-.5-10-.8-9.4-.7-21.5-4.3-29.8-9-13.4-7.4-26.1-22.3-32.2-37.4-1.5-3.7-3.1-7.6-3.6-8.7-.6-1.3-.8 1.8-.5 8.5z"/></svg>